<svg xmlns="http://www.w3.org/2000/svg" xmlns:xlink="http://www.w3.org/1999/xlink" width="500" zoomAndPan="magnify" viewBox="0 0 375 374.999991" height="500" preserveAspectRatio="xMidYMid meet" version="1.0"><defs><clipPath id="id1"><path d="M 327 177 L 364.085938 177 L 364.085938 216 L 327 216 Z M 327 177 " clip-rule="nonzero"/></clipPath><clipPath id="id2"><path d="M 224 5.839844 L 253 5.839844 L 253 39 L 224 39 Z M 224 5.839844 " clip-rule="nonzero"/></clipPath><clipPath id="id3"><path d="M 10.835938 177 L 48 177 L 48 216 L 10.835938 216 Z M 10.835938 177 " clip-rule="nonzero"/></clipPath><clipPath id="id4"><path d="M 122 5.839844 L 151 5.839844 L 151 39 L 122 39 Z M 122 5.839844 " clip-rule="nonzero"/></clipPath><clipPath id="id5"><path d="M 141 352 L 230 352 L 230 368.839844 L 141 368.839844 Z M 141 352 " clip-rule="nonzero"/></clipPath></defs><path fill="rgb(96.859741%, 58.039856%, 6.269836%)" d="M 294.15625 307.625 C 275.503906 308.550781 259.828125 297.980469 259.828125 297.980469 C 259.828125 297.980469 274.378906 285.90625 293.03125 284.980469 C 311.671875 284.054688 327.363281 294.617188 327.363281 294.617188 C 327.363281 294.617188 312.804688 306.695312 294.15625 307.625 " fill-opacity="1" fill-rule="nonzero"/><path fill="rgb(96.859741%, 58.039856%, 6.269836%)" d="M 278.089844 277.40625 C 273.171875 290.632812 260.136719 297.992188 260.136719 297.992188 C 260.136719 297.992188 255.066406 283.90625 259.980469 270.6875 C 264.90625 257.460938 277.941406 250.105469 277.941406 250.105469 C 277.941406 250.105469 283.003906 264.183594 278.089844 277.40625 " fill-opacity="1" fill-rule="nonzero"/><path fill="rgb(96.859741%, 58.039856%, 6.269836%)" d="M 304.273438 251.871094 C 301.109375 265.492188 290.265625 274.617188 290.265625 274.617188 C 290.265625 274.617188 284.554688 261.652344 287.714844 248.03125 C 290.878906 234.410156 301.726562 225.292969 301.726562 225.292969 C 301.726562 225.292969 307.4375 238.25 304.273438 251.871094 " fill-opacity="1" fill-rule="nonzero"/><path fill="rgb(96.859741%, 58.039856%, 6.269836%)" d="M 323.875 213.675781 C 324.53125 227.644531 316.582031 239.367188 316.582031 239.367188 C 316.582031 239.367188 307.550781 228.449219 306.890625 214.480469 C 306.222656 200.515625 314.179688 188.792969 314.179688 188.792969 C 314.179688 188.792969 323.203125 199.710938 323.875 213.675781 " fill-opacity="1" fill-rule="nonzero"/><path fill="rgb(96.859741%, 58.039856%, 6.269836%)" d="M 329.375 163.257812 C 335.402344 175.875 332.625 189.761719 332.625 189.761719 C 332.625 189.761719 320.070312 183.195312 314.039062 170.578125 C 308.007812 157.960938 310.789062 144.074219 310.789062 144.074219 C 310.789062 144.074219 323.34375 150.640625 329.375 163.257812 " fill-opacity="1" fill-rule="nonzero"/><path fill="rgb(96.859741%, 58.039856%, 6.269836%)" d="M 321.835938 122.410156 C 331.117188 132.867188 332.289062 146.984375 332.289062 146.984375 C 332.289062 146.984375 318.410156 144.140625 309.121094 133.683594 C 299.835938 123.226562 298.667969 109.109375 298.667969 109.109375 C 298.667969 109.109375 312.550781 111.949219 321.835938 122.410156 " fill-opacity="1" fill-rule="nonzero"/><path fill="rgb(96.859741%, 58.039856%, 6.269836%)" d="M 301.589844 86.644531 C 313.84375 93.390625 319.675781 106.304688 319.675781 106.304688 C 319.675781 106.304688 305.640625 108.269531 293.386719 101.519531 C 281.136719 94.773438 275.304688 81.863281 275.304688 81.863281 C 275.304688 81.863281 289.339844 79.898438 301.589844 86.644531 " fill-opacity="1" fill-rule="nonzero"/><path fill="rgb(96.859741%, 58.039856%, 6.269836%)" d="M 275.734375 57.15625 C 289.117188 61.234375 297.488281 72.664062 297.488281 72.664062 C 297.488281 72.664062 284.160156 77.484375 270.78125 73.410156 C 257.398438 69.335938 249.027344 57.90625 249.027344 57.90625 C 249.027344 57.90625 262.351562 53.085938 275.734375 57.15625 " fill-opacity="1" fill-rule="nonzero"/><path fill="rgb(96.859741%, 58.039856%, 6.269836%)" d="M 236.457031 33.808594 C 250.425781 34.652344 261.230469 43.8125 261.230469 43.8125 C 261.230469 43.8125 249.398438 51.609375 235.4375 50.765625 C 221.472656 49.925781 210.660156 40.765625 210.660156 40.765625 C 210.660156 40.765625 222.488281 32.972656 236.457031 33.808594 " fill-opacity="1" fill-rule="nonzero"/><path fill="rgb(96.859741%, 58.039856%, 6.269836%)" d="M 246.90625 289.753906 C 236.332031 307.253906 215.226562 313.875 215.226562 313.875 C 215.226562 313.875 211.257812 292.128906 221.832031 274.628906 C 232.398438 257.128906 253.507812 250.5 253.507812 250.5 C 253.507812 250.5 257.476562 272.25 246.90625 289.753906 " fill-opacity="1" fill-rule="nonzero"/><path fill="rgb(96.859741%, 58.039856%, 6.269836%)" d="M 251.777344 335.792969 C 230.210938 331.242188 215.5 314.464844 215.5 314.464844 C 215.5 314.464844 235.746094 305.058594 257.3125 309.609375 C 278.878906 314.160156 293.589844 330.941406 293.589844 330.941406 C 293.589844 330.941406 273.34375 340.339844 251.777344 335.792969 " fill-opacity="1" fill-rule="nonzero"/><path fill="rgb(96.859741%, 58.039856%, 6.269836%)" d="M 319 274.019531 C 305.257812 279.109375 291.019531 274.890625 291.019531 274.890625 C 291.019531 274.890625 299.070312 262.421875 312.8125 257.332031 C 326.558594 252.25 340.792969 256.460938 340.792969 256.460938 C 340.792969 256.460938 332.75 268.929688 319 274.019531 " fill-opacity="1" fill-rule="nonzero"/><path fill="rgb(96.859741%, 58.039856%, 6.269836%)" d="M 340.09375 237.8125 C 328.222656 246.402344 313.382812 246.160156 313.382812 246.160156 C 313.382812 246.160156 317.785156 231.988281 329.652344 223.398438 C 341.519531 214.804688 356.367188 215.050781 356.367188 215.050781 C 356.367188 215.050781 351.96875 229.21875 340.09375 237.8125 " fill-opacity="1" fill-rule="nonzero"/><g clip-path="url(#id1)"><path fill="rgb(96.859741%, 58.039856%, 6.269836%)" d="M 352.015625 203.121094 C 341.78125 213.613281 327.113281 215.902344 327.113281 215.902344 C 327.113281 215.902344 329.027344 201.1875 339.257812 190.699219 C 349.488281 180.214844 364.164062 177.921875 364.164062 177.921875 C 364.164062 177.921875 362.242188 192.632812 352.015625 203.121094 " fill-opacity="1" fill-rule="nonzero"/></g><path fill="rgb(96.859741%, 58.039856%, 6.269836%)" d="M 355.679688 165.226562 C 348.09375 177.757812 334.316406 183.300781 334.316406 183.300781 C 334.316406 183.300781 332.859375 168.535156 340.449219 156.011719 C 348.046875 143.480469 361.816406 137.9375 361.816406 137.9375 C 361.816406 137.9375 363.277344 152.703125 355.679688 165.226562 " fill-opacity="1" fill-rule="nonzero"/><path fill="rgb(96.859741%, 58.039856%, 6.269836%)" d="M 348.214844 123.601562 C 344.480469 137.769531 332.839844 146.984375 332.839844 146.984375 C 332.839844 146.984375 327.253906 133.230469 330.992188 119.074219 C 334.730469 104.90625 346.367188 95.691406 346.367188 95.691406 C 346.367188 95.691406 351.945312 109.441406 348.214844 123.601562 " fill-opacity="1" fill-rule="nonzero"/><path fill="rgb(96.859741%, 58.039856%, 6.269836%)" d="M 334.894531 87.496094 C 332.800781 101.992188 322.292969 112.472656 322.292969 112.472656 C 322.292969 112.472656 315.175781 99.453125 317.273438 84.953125 C 319.359375 70.457031 329.875 59.976562 329.875 59.976562 C 329.875 59.976562 336.984375 73 334.894531 87.496094 " fill-opacity="1" fill-rule="nonzero"/><path fill="rgb(96.859741%, 58.039856%, 6.269836%)" d="M 312.914062 58.667969 C 315.078125 73.15625 308.019531 86.207031 308.019531 86.207031 C 308.019531 86.207031 297.460938 75.773438 295.304688 61.285156 C 293.148438 46.796875 300.207031 33.746094 300.207031 33.746094 C 300.207031 33.746094 310.757812 44.183594 312.914062 58.667969 " fill-opacity="1" fill-rule="nonzero"/><path fill="rgb(96.859741%, 58.039856%, 6.269836%)" d="M 280.859375 33.667969 C 285.367188 45.242188 281.992188 57.359375 281.992188 57.359375 C 281.992188 57.359375 271.296875 50.722656 266.777344 39.144531 C 262.269531 27.578125 265.644531 15.453125 265.644531 15.453125 C 265.644531 15.453125 276.339844 22.09375 280.859375 33.667969 " fill-opacity="1" fill-rule="nonzero"/><g clip-path="url(#id2)"><path fill="rgb(96.859741%, 58.039856%, 6.269836%)" d="M 244.320312 17.460938 C 252.101562 26.460938 252.941406 38.480469 252.941406 38.480469 C 252.941406 38.480469 241.160156 35.90625 233.375 26.90625 C 225.597656 17.910156 224.761719 5.890625 224.761719 5.890625 C 224.761719 5.890625 236.542969 8.460938 244.320312 17.460938 " fill-opacity="1" fill-rule="nonzero"/></g><path fill="rgb(96.859741%, 58.039856%, 6.269836%)" d="M 80.875 307.625 C 99.527344 308.550781 115.210938 297.980469 115.210938 297.980469 C 115.210938 297.980469 100.652344 285.90625 82.007812 284.980469 C 63.355469 284.054688 47.679688 294.617188 47.679688 294.617188 C 47.679688 294.617188 62.234375 306.695312 80.875 307.625 " fill-opacity="1" fill-rule="nonzero"/><path fill="rgb(96.859741%, 58.039856%, 6.269836%)" d="M 96.953125 277.40625 C 101.867188 290.632812 114.90625 297.992188 114.90625 297.992188 C 114.90625 297.992188 119.96875 283.90625 115.046875 270.6875 C 110.132812 257.460938 97.097656 250.105469 97.097656 250.105469 C 97.097656 250.105469 92.027344 264.183594 96.953125 277.40625 " fill-opacity="1" fill-rule="nonzero"/><path fill="rgb(96.859741%, 58.039856%, 6.269836%)" d="M 70.757812 251.871094 C 73.921875 265.492188 84.765625 274.617188 84.765625 274.617188 C 84.765625 274.617188 90.476562 261.652344 87.316406 248.03125 C 84.15625 234.410156 73.308594 225.292969 73.308594 225.292969 C 73.308594 225.292969 67.597656 238.25 70.757812 251.871094 " fill-opacity="1" fill-rule="nonzero"/><path fill="rgb(96.859741%, 58.039856%, 6.269836%)" d="M 49.910156 212.265625 C 49.253906 226.226562 57.207031 237.957031 57.207031 237.957031 C 57.207031 237.957031 66.230469 227.035156 66.894531 213.070312 C 67.5625 199.101562 59.609375 187.378906 59.609375 187.378906 C 59.609375 187.378906 50.582031 198.296875 49.910156 212.265625 " fill-opacity="1" fill-rule="nonzero"/><path fill="rgb(96.859741%, 58.039856%, 6.269836%)" d="M 45.660156 163.257812 C 39.632812 175.875 42.414062 189.761719 42.414062 189.761719 C 42.414062 189.761719 54.96875 183.195312 60.996094 170.578125 C 67.03125 157.960938 64.246094 144.074219 64.246094 144.074219 C 64.246094 144.074219 51.691406 150.640625 45.660156 163.257812 " fill-opacity="1" fill-rule="nonzero"/><path fill="rgb(96.859741%, 58.039856%, 6.269836%)" d="M 53.199219 122.410156 C 43.914062 132.867188 42.742188 146.984375 42.742188 146.984375 C 42.742188 146.984375 56.628906 144.140625 65.914062 133.683594 C 75.199219 123.226562 76.371094 109.109375 76.371094 109.109375 C 76.371094 109.109375 62.484375 111.949219 53.199219 122.410156 " fill-opacity="1" fill-rule="nonzero"/><path fill="rgb(96.859741%, 58.039856%, 6.269836%)" d="M 73.441406 86.644531 C 61.191406 93.390625 55.359375 106.304688 55.359375 106.304688 C 55.359375 106.304688 69.398438 108.269531 81.648438 101.519531 C 93.898438 94.773438 99.734375 81.863281 99.734375 81.863281 C 99.734375 81.863281 85.695312 79.898438 73.441406 86.644531 " fill-opacity="1" fill-rule="nonzero"/><path fill="rgb(96.859741%, 58.039856%, 6.269836%)" d="M 99.300781 57.15625 C 85.914062 61.234375 77.546875 72.664062 77.546875 72.664062 C 77.546875 72.664062 90.871094 77.484375 104.253906 73.410156 C 117.640625 69.335938 126.015625 57.90625 126.015625 57.90625 C 126.015625 57.90625 112.6875 53.085938 99.300781 57.15625 " fill-opacity="1" fill-rule="nonzero"/><path fill="rgb(96.859741%, 58.039856%, 6.269836%)" d="M 138.578125 33.808594 C 124.617188 34.652344 113.804688 43.8125 113.804688 43.8125 C 113.804688 43.8125 125.636719 51.609375 139.601562 50.765625 C 153.566406 49.925781 164.378906 40.765625 164.378906 40.765625 C 164.378906 40.765625 152.542969 32.972656 138.578125 33.808594 " fill-opacity="1" fill-rule="nonzero"/><path fill="rgb(96.859741%, 58.039856%, 6.269836%)" d="M 128.132812 289.753906 C 138.707031 307.253906 159.808594 313.875 159.808594 313.875 C 159.808594 313.875 163.773438 292.128906 153.203125 274.628906 C 142.636719 257.128906 121.527344 250.5 121.527344 250.5 C 121.527344 250.5 117.5625 272.25 128.132812 289.753906 " fill-opacity="1" fill-rule="nonzero"/><path fill="rgb(96.859741%, 58.039856%, 6.269836%)" d="M 123.257812 335.792969 C 144.824219 331.242188 159.535156 314.464844 159.535156 314.464844 C 159.535156 314.464844 139.289062 305.058594 117.726562 309.609375 C 96.164062 314.160156 81.441406 330.941406 81.441406 330.941406 C 81.441406 330.941406 101.691406 340.339844 123.257812 335.792969 " fill-opacity="1" fill-rule="nonzero"/><path fill="rgb(96.859741%, 58.039856%, 6.269836%)" d="M 56.035156 274.019531 C 69.777344 279.109375 84.015625 274.890625 84.015625 274.890625 C 84.015625 274.890625 75.964844 262.421875 62.21875 257.332031 C 48.476562 252.25 34.25 256.460938 34.25 256.460938 C 34.25 256.460938 42.289062 268.929688 56.035156 274.019531 " fill-opacity="1" fill-rule="nonzero"/><path fill="rgb(96.859741%, 58.039856%, 6.269836%)" d="M 35.605469 239.480469 C 47.472656 248.066406 62.324219 247.820312 62.324219 247.820312 C 62.324219 247.820312 57.917969 233.65625 46.050781 225.0625 C 34.183594 216.472656 19.335938 216.710938 19.335938 216.710938 C 19.335938 216.710938 23.738281 230.882812 35.605469 239.480469 " fill-opacity="1" fill-rule="nonzero"/><g clip-path="url(#id3)"><path fill="rgb(96.859741%, 58.039856%, 6.269836%)" d="M 23.023438 203.121094 C 33.253906 213.613281 47.921875 215.902344 47.921875 215.902344 C 47.921875 215.902344 46.003906 201.1875 35.773438 190.699219 C 25.542969 180.214844 10.875 177.921875 10.875 177.921875 C 10.875 177.921875 12.789062 192.632812 23.023438 203.121094 " fill-opacity="1" fill-rule="nonzero"/></g><path fill="rgb(96.859741%, 58.039856%, 6.269836%)" d="M 19.347656 165.226562 C 26.945312 177.757812 40.71875 183.300781 40.71875 183.300781 C 40.71875 183.300781 42.175781 168.535156 34.585938 156.011719 C 26.992188 143.480469 13.21875 137.9375 13.21875 137.9375 C 13.21875 137.9375 11.753906 152.703125 19.347656 165.226562 " fill-opacity="1" fill-rule="nonzero"/><path fill="rgb(96.859741%, 58.039856%, 6.269836%)" d="M 26.824219 123.601562 C 30.558594 137.769531 42.195312 146.984375 42.195312 146.984375 C 42.195312 146.984375 47.777344 133.230469 44.042969 119.074219 C 40.304688 104.90625 28.667969 95.691406 28.667969 95.691406 C 28.667969 95.691406 23.085938 109.441406 26.824219 123.601562 " fill-opacity="1" fill-rule="nonzero"/><path fill="rgb(96.859741%, 58.039856%, 6.269836%)" d="M 40.148438 87.496094 C 42.238281 101.992188 52.742188 112.472656 52.742188 112.472656 C 52.742188 112.472656 59.863281 99.453125 57.765625 84.953125 C 55.675781 70.457031 45.160156 59.976562 45.160156 59.976562 C 45.160156 59.976562 38.046875 73 40.148438 87.496094 " fill-opacity="1" fill-rule="nonzero"/><path fill="rgb(96.859741%, 58.039856%, 6.269836%)" d="M 62.117188 58.667969 C 59.960938 73.15625 67.019531 86.207031 67.019531 86.207031 C 67.019531 86.207031 77.574219 75.773438 79.730469 61.285156 C 81.890625 46.796875 74.828125 33.746094 74.828125 33.746094 C 74.828125 33.746094 64.273438 44.183594 62.117188 58.667969 " fill-opacity="1" fill-rule="nonzero"/><path fill="rgb(96.859741%, 58.039856%, 6.269836%)" d="M 94.179688 33.667969 C 89.667969 45.242188 93.042969 57.359375 93.042969 57.359375 C 93.042969 57.359375 103.738281 50.722656 108.253906 39.144531 C 112.765625 27.578125 109.386719 15.453125 109.386719 15.453125 C 109.386719 15.453125 98.699219 22.09375 94.179688 33.667969 " fill-opacity="1" fill-rule="nonzero"/><g clip-path="url(#id4)"><path fill="rgb(96.859741%, 58.039856%, 6.269836%)" d="M 130.710938 17.460938 C 122.933594 26.460938 122.09375 38.480469 122.09375 38.480469 C 122.09375 38.480469 133.878906 35.90625 141.660156 26.90625 C 149.441406 17.910156 150.273438 5.890625 150.273438 5.890625 C 150.273438 5.890625 138.496094 8.460938 130.710938 17.460938 " fill-opacity="1" fill-rule="nonzero"/></g><path fill="rgb(96.859741%, 58.039856%, 6.269836%)" d="M 210.355469 23.972656 C 219.445312 25.265625 228.433594 27.421875 237.144531 30.398438 C 245.851562 33.398438 254.277344 37.230469 262.289062 41.804688 C 278.304688 50.957031 292.617188 63.140625 304.261719 77.523438 C 315.878906 91.933594 324.765625 108.558594 330.300781 126.261719 C 335.855469 143.964844 338.015625 162.722656 336.75 181.253906 C 335.515625 199.792969 330.75 218.128906 322.703125 234.925781 C 314.695312 251.734375 303.511719 267.027344 289.921875 279.78125 C 276.339844 292.550781 260.324219 302.734375 243 309.65625 C 225.679688 316.585938 207.035156 320.203125 188.382812 320.324219 C 169.730469 320.449219 151.039062 317.089844 133.625 310.386719 C 116.207031 303.699219 100.0625 293.726562 86.308594 281.152344 C 72.550781 268.570312 61.160156 253.433594 52.925781 236.734375 C 48.816406 228.382812 45.46875 219.652344 42.992188 210.683594 C 40.523438 201.714844 38.917969 192.519531 38.164062 183.257812 C 36.660156 164.738281 38.5625 145.964844 43.878906 128.191406 C 49.179688 110.421875 57.84375 93.671875 69.257812 79.117188 C 80.707031 64.574219 94.859375 52.214844 110.746094 42.84375 C 118.695312 38.167969 127.066406 34.222656 135.730469 31.109375 C 144.40625 28.015625 153.355469 25.746094 162.429688 24.320312 C 163.046875 24.230469 163.621094 24.648438 163.722656 25.265625 C 163.816406 25.871094 163.40625 26.4375 162.8125 26.546875 C 145.015625 29.8125 127.890625 36.417969 112.558594 45.851562 C 97.222656 55.292969 83.699219 67.597656 72.878906 81.90625 C 62 96.175781 53.808594 112.445312 48.90625 129.65625 C 43.992188 146.855469 42.375 164.972656 44.03125 182.746094 C 45.6875 200.523438 50.683594 217.949219 58.660156 233.886719 C 66.644531 249.820312 77.628906 264.230469 90.839844 276.167969 C 104.050781 288.113281 119.449219 297.628906 136.085938 303.964844 C 152.714844 310.320312 170.535156 313.488281 188.335938 313.335938 C 206.140625 313.257812 223.914062 309.839844 240.445312 303.257812 C 257 296.703125 272.265625 286.972656 285.3125 274.859375 C 298.375 262.75 309.15625 248.183594 316.917969 232.148438 C 324.675781 216.105469 329.445312 198.617188 330.859375 180.816406 C 332.273438 163.019531 330.414062 144.9375 325.257812 127.808594 C 320.128906 110.664062 311.707031 94.507812 300.648438 80.390625 C 289.632812 66.230469 275.953125 54.109375 260.488281 44.878906 C 252.761719 40.257812 244.597656 36.359375 236.132812 33.253906 C 227.667969 30.117188 218.917969 27.777344 209.988281 26.269531 C 209.351562 26.160156 208.921875 25.558594 209.03125 24.925781 C 209.132812 24.304688 209.71875 23.882812 210.34375 23.972656 L 210.355469 23.972656 " fill-opacity="1" fill-rule="nonzero"/><path fill="rgb(98.429871%, 74.899292%, 3.529358%)" d="M 195.816406 81.929688 L 217.296875 81.984375 L 200.3125 95.136719 L 206.890625 115.574219 L 189.132812 103.488281 L 171.714844 116.0625 L 177.71875 95.445312 L 160.378906 82.773438 L 181.851562 82.117188 L 188.554688 61.71875 L 195.816406 81.929688 " fill-opacity="1" fill-rule="nonzero"/><path fill="rgb(98.429871%, 74.899292%, 3.529358%)" d="M 253.871094 105.683594 L 266.9375 105.71875 L 256.605469 113.714844 L 260.609375 126.144531 L 249.808594 118.796875 L 239.214844 126.441406 L 242.871094 113.90625 L 232.320312 106.203125 L 245.382812 105.796875 L 249.457031 93.394531 L 253.871094 105.683594 " fill-opacity="1" fill-rule="nonzero"/><path fill="rgb(98.429871%, 74.899292%, 3.529358%)" d="M 129.644531 105.683594 L 142.714844 105.71875 L 132.378906 113.714844 L 136.382812 126.144531 L 125.582031 118.796875 L 114.988281 126.441406 L 118.648438 113.90625 L 108.097656 106.203125 L 121.160156 105.796875 L 125.230469 93.394531 L 129.644531 105.683594 " fill-opacity="1" fill-rule="nonzero"/><path fill="rgb(98.429871%, 74.899292%, 3.529358%)" d="M 204.910156 358.140625 L 166.082031 358.140625 L 176.804688 258.871094 L 194.1875 258.871094 L 204.910156 358.140625 " fill-opacity="1" fill-rule="nonzero"/><path fill="rgb(98.429871%, 74.899292%, 3.529358%)" d="M 192.203125 258.871094 L 192.203125 246.71875 C 218.359375 246.71875 235.488281 239.011719 248.953125 223.824219 C 266.570312 203.949219 268.566406 176.003906 268.558594 164.296875 L 222.128906 164.296875 L 222.128906 152.140625 L 279.636719 152.140625 L 280.152344 157.632812 C 280.320312 159.445312 283.988281 202.261719 257.761719 231.929688 C 241.964844 249.808594 221.867188 258.871094 192.203125 258.871094 " fill-opacity="1" fill-rule="nonzero"/><path fill="rgb(97.24884%, 60.778809%, 5.879211%)" d="M 268.558594 164.296875 L 237.113281 164.296875 L 237.113281 161.171875 L 268.558594 161.171875 C 268.558594 162.109375 268.589844 163.160156 268.558594 164.296875 " fill-opacity="1" fill-rule="nonzero"/><path fill="rgb(97.24884%, 60.778809%, 5.879211%)" d="M 219.800781 255.617188 C 221.980469 253.679688 223.988281 251.5625 225.8125 249.285156 C 236.835938 244.792969 245.980469 237.957031 254.0625 228.808594 C 280.296875 199.140625 276.617188 156.320312 276.453125 154.515625 L 276.234375 152.140625 L 279.636719 152.140625 L 280.152344 157.632812 C 280.191406 158.054688 280.417969 160.667969 280.417969 164.808594 C 280.417969 178.558594 277.914062 209.128906 257.761719 231.929688 C 247.433594 243.617188 235.273438 251.535156 219.800781 255.617188 " fill-opacity="1" fill-rule="nonzero"/><path fill="rgb(98.429871%, 74.899292%, 3.529358%)" d="M 178.789062 258.871094 L 178.789062 246.71875 C 152.636719 246.71875 135.5 239.011719 122.042969 223.824219 C 104.421875 203.949219 102.429688 176.003906 102.429688 164.296875 L 148.859375 164.296875 L 148.859375 152.140625 L 91.351562 152.140625 L 90.835938 157.632812 C 90.667969 159.445312 86.996094 202.261719 113.226562 231.929688 C 129.023438 249.808594 149.125 258.871094 178.789062 258.871094 " fill-opacity="1" fill-rule="nonzero"/><path fill="rgb(97.24884%, 60.778809%, 5.879211%)" d="M 133.875 164.296875 L 102.429688 164.296875 C 102.402344 163.160156 102.429688 162.109375 102.429688 161.171875 L 133.875 161.171875 L 133.875 164.296875 " fill-opacity="1" fill-rule="nonzero"/><path fill="rgb(97.24884%, 60.778809%, 5.879211%)" d="M 151.191406 255.617188 C 135.722656 251.535156 123.550781 243.617188 113.226562 231.929688 C 93.070312 209.128906 90.570312 178.558594 90.570312 164.808594 C 90.570312 160.667969 90.796875 158.054688 90.835938 157.632812 L 91.351562 152.140625 L 94.753906 152.140625 L 94.539062 154.515625 C 94.363281 156.320312 90.699219 199.140625 116.925781 228.808594 C 125.007812 237.957031 134.152344 244.792969 145.175781 249.285156 C 147 251.5625 149.011719 253.679688 151.191406 255.617188 " fill-opacity="1" fill-rule="nonzero"/><path fill="rgb(98.429871%, 74.899292%, 3.529358%)" d="M 133.875 132.929688 L 133.875 217.070312 C 133.875 245.558594 156.988281 268.660156 185.496094 268.660156 C 214.003906 268.660156 237.113281 245.558594 237.113281 217.070312 L 237.113281 132.929688 L 133.875 132.929688 " fill-opacity="1" fill-rule="nonzero"/><path fill="rgb(97.24884%, 62.748718%, 5.488586%)" d="M 185.429688 268.660156 C 185.425781 268.660156 185.421875 268.660156 185.421875 268.660156 C 185.421875 268.660156 185.425781 268.660156 185.429688 268.660156 M 185.355469 268.660156 C 185.351562 268.660156 185.34375 268.660156 185.339844 268.660156 C 185.34375 268.660156 185.351562 268.660156 185.355469 268.660156 M 185.277344 268.660156 C 185.273438 268.660156 185.269531 268.660156 185.265625 268.660156 C 185.269531 268.660156 185.273438 268.660156 185.277344 268.660156 M 185.199219 268.65625 C 185.199219 268.65625 185.199219 268.65625 185.195312 268.65625 C 185.199219 268.65625 185.199219 268.65625 185.199219 268.65625 M 185.050781 268.65625 C 185.050781 268.65625 185.046875 268.65625 185.046875 268.65625 C 185.050781 268.65625 185.046875 268.65625 185.050781 268.65625 M 184.976562 268.65625 L 184.972656 268.65625 L 184.976562 268.65625 " fill-opacity="1" fill-rule="nonzero"/><path fill="rgb(97.24884%, 62.748718%, 5.488586%)" d="M 185.496094 268.660156 C 185.472656 268.660156 185.453125 268.660156 185.429688 268.660156 C 185.425781 268.660156 185.421875 268.660156 185.421875 268.660156 C 185.398438 268.660156 185.375 268.660156 185.355469 268.660156 C 185.351562 268.660156 185.34375 268.660156 185.339844 268.660156 C 185.320312 268.660156 185.296875 268.660156 185.277344 268.660156 C 185.273438 268.660156 185.269531 268.660156 185.265625 268.660156 C 185.242188 268.660156 185.222656 268.65625 185.199219 268.65625 C 185.199219 268.65625 185.199219 268.65625 185.195312 268.65625 C 185.144531 268.65625 185.101562 268.65625 185.050781 268.65625 C 185.046875 268.65625 185.050781 268.65625 185.046875 268.65625 C 185.027344 268.65625 185 268.65625 184.976562 268.65625 L 184.972656 268.65625 C 172.460938 268.53125 161.011719 263.949219 152.132812 256.421875 C 156.746094 256.171875 161.261719 255.21875 165.652344 253.671875 C 174.03125 258.890625 183.925781 261.917969 194.511719 261.917969 C 196.203125 261.917969 197.574219 260.546875 197.574219 258.851562 C 197.574219 257.164062 196.203125 255.792969 194.511719 255.792969 C 186.671875 255.792969 179.265625 253.929688 172.707031 250.621094 C 205.296875 233.917969 229.355469 185.03125 229.355469 149.25 C 229.355469 149.179688 229.355469 149.109375 229.355469 149.039062 L 236.015625 149.039062 C 236.390625 149.039062 236.753906 149.015625 237.113281 148.972656 L 237.113281 217.070312 C 237.113281 245.558594 214.003906 268.660156 185.496094 268.660156 " fill-opacity="1" fill-rule="nonzero"/><path fill="rgb(96.859741%, 56.469727%, 6.669617%)" d="M 244.5 140.566406 C 244.5 145.246094 240.707031 149.039062 236.015625 149.039062 L 134.972656 149.039062 C 130.285156 149.039062 126.492188 145.246094 126.492188 140.566406 C 126.492188 135.882812 130.285156 132.089844 134.972656 132.089844 L 236.015625 132.089844 C 240.707031 132.089844 244.5 135.882812 244.5 140.566406 " fill-opacity="1" fill-rule="nonzero"/><path fill="rgb(98.039246%, 72.938538%, 3.529358%)" d="M 233.433594 141.796875 L 133.769531 141.796875 C 131.746094 141.796875 130.097656 140.148438 130.097656 138.113281 C 130.097656 136.085938 131.746094 134.441406 133.769531 134.441406 L 233.433594 134.441406 C 235.472656 134.441406 237.113281 136.085938 237.113281 138.113281 C 237.113281 140.148438 235.472656 141.796875 233.433594 141.796875 " fill-opacity="1" fill-rule="nonzero"/><g clip-path="url(#id5)"><path fill="rgb(96.469116%, 53.729248%, 7.058716%)" d="M 229.21875 368.910156 L 141.765625 368.910156 L 141.765625 352.417969 L 229.21875 352.417969 L 229.21875 368.910156 " fill-opacity="1" fill-rule="nonzero"/></g><path fill="rgb(97.648621%, 64.709473%, 5.099487%)" d="M 219.808594 352.417969 L 151.183594 352.417969 L 151.183594 342.824219 L 219.808594 342.824219 L 219.808594 352.417969 " fill-opacity="1" fill-rule="nonzero"/><path fill="rgb(99.21875%, 83.918762%, 1.959229%)" d="M 165.652344 253.671875 C 150.160156 244.011719 139.828125 226.820312 139.828125 207.265625 L 139.828125 169.613281 C 139.828125 167.925781 141.199219 166.554688 142.890625 166.554688 C 144.578125 166.554688 145.957031 167.925781 145.957031 169.613281 L 145.957031 207.265625 C 145.957031 226.195312 156.851562 242.625 172.707031 250.621094 C 170.394531 251.804688 168.046875 252.824219 165.652344 253.671875 " fill-opacity="1" fill-rule="nonzero"/><path fill="rgb(98.429871%, 76.858521%, 3.138733%)" d="M 194.511719 261.917969 C 183.925781 261.917969 174.03125 258.890625 165.652344 253.671875 C 168.046875 252.824219 170.394531 251.804688 172.707031 250.621094 C 179.265625 253.929688 186.671875 255.792969 194.511719 255.792969 C 196.203125 255.792969 197.574219 257.164062 197.574219 258.851562 C 197.574219 260.546875 196.203125 261.917969 194.511719 261.917969 " fill-opacity="1" fill-rule="nonzero"/></svg>