<?xml version="1.0" encoding="UTF-8"?>
<svg width="414px" height="512px" viewBox="0 0 414 512" version="1.1" xmlns="http://www.w3.org/2000/svg" xmlns:xlink="http://www.w3.org/1999/xlink">
    <g stroke="none" stroke-width="1" fill="none" fill-rule="evenodd">
        <g id="gold-medal" fill="#4a89dc" fill-rule="nonzero">
            <path d="M157.457,0 C159.794,0 162.001,1.078 163.443,2.917 L163.443,2.917 L207.001,58.509 L250.556,2.918 C251.998,1.079 254.205,0 256.542,0 L256.542,0 L406.077,0 C408.985,0 411.64,1.663 412.913,4.279 C414.187,6.894 413.856,10.007 412.062,12.296 L412.062,12.296 L310.753,141.59 C313.233,144.954 314.717,149.094 314.717,153.583 L314.717,153.583 L314.717,227.988 C348.288,257.776 369.484,301.216 369.484,349.52 C369.484,439.112 296.597,512 207.005,512 C117.413,512 44.526,439.112 44.526,349.519 C44.526,301.22 65.719,257.783 99.284,227.996 L99.284,227.996 L99.284,153.583 C99.284,149.175 100.716,144.994 103.233,141.572 L103.233,141.572 L1.939,12.297 C0.144,10.006 -0.186,6.894 1.087,4.278 C2.36,1.663 5.014,0 7.923,0 L7.923,0 Z M207.005,202.248 C125.8,202.248 59.735,268.313 59.735,349.52 C59.735,430.727 125.8,496.793 207.006,496.793 C288.211,496.793 354.277,430.726 354.277,349.52 C354.277,268.314 288.21,202.248 207.005,202.248 Z M206.545712,226 C240.643712,226 272.873712,239.94 296.172712,264.51 C299.186712,267.689 298.863712,272.769 295.496712,275.572 C292.407712,278.143 287.867712,277.85 285.100712,274.935 C264.671712,253.415 236.425712,241.206 206.544712,241.206 C145.385712,241.206 95.9007124,292.147 98.2897124,353.826 C100.467712,410.053 146.035712,455.621 202.262712,457.799 C263.943712,460.188 314.882712,410.703 314.882712,349.544 C314.882712,333.22 311.195712,317.101 304.168712,302.517 C302.429712,298.907 303.770712,294.572 307.256712,292.596 L307.256712,292.596 C311.114712,290.409 315.976712,291.98 317.895712,295.97 C325.894712,312.596 330.090713,330.956 330.090713,349.546 C330.090713,419.289 272.001712,475.72 201.663712,472.997 C137.543712,470.514 85.5787124,418.55 83.0947124,354.43 C80.3697124,284.092 136.800712,226 206.545712,226 Z M205.88,286 C219.56,286 230.48,289.24 238.64,295.72 C246.8,302.2 250.88,311.02 250.88,322.18 C250.88,329.02 249.44,335.44 246.56,341.44 C243.68,347.44 238.16,354.28 230,361.96 L230,361.96 L196.34,394 L255.74,394 L255.74,413.8 L162.86,413.8 L162.86,398.14 L212.9,350.62 L213.407686,350.130992 C218.769229,344.935179 222.41,340.388182 224.33,336.49 C226.31,332.47 227.3,328.48 227.3,324.52 C227.3,318.64 225.32,314.14 221.36,311.02 C217.4,307.9 211.58,306.34 203.9,306.34 C191.06,306.34 181.22,310.72 174.38,319.48 L174.38,319.48 L158,306.88 L158.402666,306.348086 C163.279627,300.003776 169.775405,295.051081 177.89,291.49 C186.23,287.83 195.56,286 205.88,286 Z M114.49,155.942 L114.49,216.031 C117.783,213.742 121.165,211.571 124.629,209.525 L124.629,209.525 L124.629,168.882 L114.49,155.942 Z M294.439,148.515 L277.524,148.515 L287.751,161.567 C287.778,161.6 287.797,161.638 287.823,161.672 C287.991,161.894 288.146,162.123 288.289,162.362 C288.319,162.414 288.353,162.463 288.382,162.516 C288.541,162.796 288.683,163.086 288.806,163.387 C288.822,163.426 288.834,163.465 288.849,163.505 C288.951,163.766 289.037,164.032 289.109,164.306 C289.127,164.376 289.147,164.446 289.163,164.516 C289.233,164.814 289.291,165.116 289.324,165.427 C289.325,165.438 289.328,165.448 289.329,165.459 C289.356,165.721 289.371,165.986 289.37,166.257 L289.37,166.257 L289.37,209.52 C292.835,211.566 296.216,213.737 299.508,216.025 L299.508,216.025 L299.508,153.584 C299.508,150.789 297.234,148.515 294.439,148.515 L294.439,148.515 Z M274.163,173.86 L139.837,173.86 L139.837,201.585 C160.32,192.248 183.065,187.04 207.005,187.04 C230.941,187.04 253.683,192.247 274.163,201.581 L274.163,201.581 L274.163,173.86 Z M153.756,15.211 L124.744,15.211 L237.139,158.652 L266.149,158.652 L153.756,15.211 Z M52.558,15.211 L23.542,15.211 L135.936,158.652 L164.952,158.652 L115.172,95.121 C112.583,91.815 113.163,87.036 116.468,84.446 L116.468,84.446 C119.775,81.856 124.554,82.436 127.144,85.741 L127.144,85.741 L184.273,158.652 L217.819,158.652 L105.426,15.211 L71.88,15.211 L104.445,56.771 C107.034,60.077 106.454,64.856 103.149,67.446 L103.149,67.446 C99.842,70.036 95.063,69.456 92.473,66.151 L92.473,66.151 L52.558,15.211 Z M390.459,15.21 L361.449,15.21 L268.92,133.305 L294.44,133.305 C295.552,133.305 296.635,133.42 297.699,133.592 L297.699,133.592 L390.459,15.21 Z M342.129,15.21 L308.585,15.21 L240.829,101.679 L257.604,123.089 L342.129,15.21 Z M289.265,15.211 L260.245,15.211 L216.663,70.837 L231.169,89.351 L289.265,15.211 Z" id="Combined-Shape"></path>
        </g>
    </g>
</svg>