<?xml version="1.0" encoding="utf-8"?>
<!-- Generator: Adobe Illustrator 24.1.3, SVG Export Plug-In . SVG Version: 6.00 Build 0)  -->
<svg version="1.1" id="Layer_1" xmlns="http://www.w3.org/2000/svg" xmlns:xlink="http://www.w3.org/1999/xlink" x="0px" y="0px" width="497.4" height="230.77"
	 viewBox="0 0 4000 1860" style="enable-background:new 0 0 4000 1860;" xml:space="preserve">
<style type="text/css">
	.st0{fill:#434343;stroke:#434343;stroke-width:25;stroke-miterlimit:10;}
	.st1{fill:#434343;}
	.st2{fill:#176EDE;}
</style>
<g>
	<g>
		<path class="st0" d="M590.8,1573.23c-64.61,63-150.46,94.5-235.38,94.5c-217.84,0-331.38-148.5-332.3-318.6
			c-1.85-168.3,110.77-325.8,332.3-325.8c84.92,0,170.77,31.5,235.38,94.5l-34.15,28.8c-55.38-54-128.31-80.1-201.23-80.1
			c-188.31,0-285.23,129.6-284.3,280.8c1.85,147.6,97.84,275.4,284.3,275.4c72.92,0,146.77-27,202.15-80.1L590.8,1573.23z"/>
		<path class="st0" d="M669.25,1439.13c0-141.3,103.38-231.3,231.69-231.3s231.69,90,231.69,231.3s-103.38,227.7-231.69,227.7
			S669.25,1580.43,669.25,1439.13z M1088.32,1439.13c0-115.2-84-189.9-187.38-189.9s-187.38,74.7-187.38,189.9
			s84,184.5,187.38,184.5S1088.32,1554.33,1088.32,1439.13z"/>
		<path class="st0" d="M1913.54,1660.53v-266.4c0-85.5-59.08-145.8-145.84-145.8c-86.77,0-146.77,63-146.77,148.5v263.7h-45.23
			v-263.7c0-85.5-60-147.6-146.77-147.6s-145.84,62.1-145.84,147.6v263.7h-45.23v-444.6h42.46l0.92,73.8
			c31.38-58.5,89.54-82.8,148.61-82.8c69.23,0,142.15,30.6,168.92,109.8c27.69-72.9,98.77-109.8,168.92-109.8
			c111.69,0,191.07,76.5,191.07,187.2v266.4H1913.54z"/>
		<path class="st0" d="M2077.84,1845.93v-630h44.31v105.3c36-67.5,108.92-111.6,197.54-111.6c123.69,4.5,221.54,85.5,221.54,228.6
			c0,149.4-103.38,230.4-231.69,230.4c-77.54,0-149.54-36.9-188.31-110.7v288L2077.84,1845.93L2077.84,1845.93z M2495.99,1438.23
			c0-125.1-83.08-186.3-186.46-186.3c-106.15,0-184.61,78.3-184.61,187.2s80.31,187.2,184.61,187.2
			C2412.91,1626.33,2495.99,1563.33,2495.99,1438.23z"/>
		<path class="st0" d="M2627.06,1438.23c0-133.2,103.38-229.5,231.69-229.5s242.77,76.5,225.23,250.2h-410.76
			c9.23,104.4,91.38,164.7,185.54,164.7c60,0,130.15-23.4,164.31-67.5l32.31,25.2c-44.31,56.7-123.69,85.5-196.61,85.5
			C2730.44,1666.83,2627.06,1579.53,2627.06,1438.23z M3043.36,1420.23c-0.92-109.8-74.77-171-184.61-171
			c-94.15,0-175.38,62.1-185.54,171H3043.36z"/>
		<path class="st0" d="M3287.05,1081.83v134.1h155.07v36.9h-155.07v270.9c0,60.3,12.92,102.6,84,102.6c22.15,0,47.08-7.2,70.15-18
			l15.69,36c-28.62,13.5-57.23,22.5-85.84,22.5c-96.92,0-128.31-55.8-128.31-143.1v-270.9h-96.92v-36.9h96.92v-129.6
			L3287.05,1081.83z"/>
		<path class="st0" d="M3521.51,1438.23c0-133.2,103.38-229.5,231.69-229.5s242.77,76.5,225.23,250.2h-410.76
			c9.23,104.4,91.38,164.7,185.54,164.7c60,0,130.15-23.4,164.31-67.5l32.31,25.2c-44.31,56.7-123.69,85.5-196.61,85.5
			C3624.89,1666.83,3521.51,1579.53,3521.51,1438.23z M3937.81,1420.23c-0.92-109.8-74.77-171-184.61-171
			c-94.15,0-175.38,62.1-185.54,171H3937.81z"/>
	</g>
</g>
<g>
	<g>
		<g>
			<path class="st1" d="M837.57,459.2c3.97,228.33-138.92,459.24-463.07,459.24c-113.78,0-250.06,0-363.84,0v-903
				c113.78,0,250.06,0,363.84,0C692.03,15.44,833.6,236.03,837.57,459.2z M183.98,754.61H374.5c210.37,0,293.72-149.64,289.75-296.7
				C660.28,317.3,575.6,176.69,374.5,176.69H183.98V754.61z"/>
			<path class="st1" d="M1471.29,282.47h154.8v635.97h-152.15l-7.94-92.88c-37.05,74.82-138.92,110.94-211.69,112.23
				c-193.17,1.29-336.06-114.81-336.06-337.98c0-219.3,149.5-334.11,340.03-332.82c87.32,0,170.67,39.99,207.72,103.2
				L1471.29,282.47z M1079.67,599.81c0,121.26,86,193.5,193.17,193.5c254.03,0,254.03-385.71,0-385.71
				C1165.67,407.6,1079.67,478.55,1079.67,599.81z"/>
			<path class="st1" d="M1911.86,282.47l11.91,73.53c50.28-78.69,117.75-90.3,183.91-90.3c67.48,0,132.31,25.8,168.03,60.63
				l-72.77,136.74c-33.08-27.09-63.51-41.28-116.43-41.28c-84.68,0-162.74,43.86-162.74,161.25v335.4h-161.41V282.47H1911.86z"/>
			<path class="st1" d="M2474.15,656.57c10.58,78.69,80.71,135.45,194.49,135.45c59.54,0,137.6-21.93,174.64-59.34l103.2,99.33
				c-68.8,69.66-181.26,103.2-280.49,103.2c-224.92,0-358.55-135.45-358.55-339.27c0-193.5,134.95-332.82,346.64-332.82
				c218.3,0,354.58,131.58,329.44,393.45L2474.15,656.57L2474.15,656.57z M2828.73,526.28c-10.58-82.56-76.74-123.84-169.35-123.84
				c-87.32,0-158.77,41.28-182.58,123.84H2828.73z"/>
		</g>
	</g>
	<g>
		<path class="st2" d="M3939.13,10.9h-717.94c-28.32,0-51.28,22.39-51.28,50v865c0,27.61,22.96,50,51.28,50h717.94
			c28.32,0,51.28-22.39,51.28-50v-865C3990.41,33.29,3967.46,10.9,3939.13,10.9z M3929.08,918.8h-697.84V698
			c0-193.2,179.69-250.8,349.53-250.8c65.23,0,184.61-10.8,184.61-108c0-91.2-84.92-134.4-195.69-134.4
			c-84.92,0-172.31,42-173.54,117.6h-161.23C3236.16,144.8,3408.47,68,3567.24,68c172.31,0,359.38,68.4,359.38,267.6
			c0,213.6-164.92,254.4-345.84,254.4c-71.38,0-187.07,18-187.07,109.2v72h535.38L3929.08,918.8L3929.08,918.8z"/>
	</g>
</g>
</svg>
