<svg xmlns="http://www.w3.org/2000/svg" width="224.88" viewBox="0 0 224.88 112.5" height="112.5" version="1.0"><path fill="#FFF" d="M 11.027344 24.453125 L 213.851562 24.453125 L 213.851562 63.800781 L 11.027344 63.800781 Z M 11.027344 24.453125"/><path fill="#27AAE1" d="M 9.734375 43.960938 L 9.734375 24.816406 L 16.058594 21.628906 C 19.535156 19.875 23.308594 17.960938 24.441406 17.371094 L 26.503906 16.300781 L 26.503906 54.558594 L 19.328125 58.171875 C 15.378906 60.15625 11.605469 62.082031 10.941406 62.445312 L 9.734375 63.109375 Z M 198.375 71.101562 L 198.375 67.96875 L 204.050781 67.972656 L 209.722656 67.976562 L 207.710938 69.101562 C 206.605469 69.722656 204.054688 71.128906 202.039062 72.230469 L 198.375 74.234375 Z M 198.375 71.101562"/><path d="M 194.191406 74.410156 L 194.191406 67.96875 L 6.714844 67.96875 L 6.714844 21.914062 L 30.753906 9.257812 L 30.816406 21.875 L 218.164062 21.875 L 218.132812 45.070312 L 218.101562 68.261719 L 207.824219 73.675781 C 202.175781 76.652344 196.796875 79.484375 195.871094 79.96875 L 194.191406 80.851562 Z M 203.925781 70.921875 C 206.90625 69.351562 209.371094 68.042969 209.402344 68.015625 C 209.429688 67.988281 206.960938 67.964844 203.914062 67.964844 L 198.375 67.964844 L 198.375 70.871094 C 198.375 72.46875 198.40625 73.777344 198.4375 73.777344 C 198.472656 73.777344 200.941406 72.492188 203.925781 70.921875 Z M 213.851562 44.921875 L 213.851562 26.042969 L 30.816406 26.042969 L 30.785156 40.699219 L 30.75 55.355469 L 22.949219 59.460938 C 18.660156 61.71875 15.09375 63.617188 15.03125 63.683594 C 14.957031 63.753906 53.199219 63.800781 114.378906 63.800781 L 213.851562 63.800781 Z M 73.898438 51.476562 C 73.050781 51.210938 72.152344 50.300781 71.835938 49.394531 C 71.621094 48.773438 71.597656 48.304688 71.597656 44.480469 C 71.597656 39.5625 71.640625 39.308594 72.660156 38.292969 C 73.496094 37.464844 74.28125 37.238281 76.136719 37.300781 C 77.390625 37.339844 77.644531 37.386719 78.296875 37.707031 C 79.136719 38.117188 79.640625 38.714844 79.992188 39.722656 C 80.195312 40.300781 80.222656 40.847656 80.222656 44.480469 C 80.222656 48.964844 80.191406 49.203125 79.492188 50.242188 C 79.191406 50.683594 78.875 50.953125 78.328125 51.230469 C 77.628906 51.585938 77.46875 51.617188 76.042969 51.640625 C 74.945312 51.664062 74.339844 51.617188 73.898438 51.476562 Z M 76.480469 49.070312 C 76.640625 48.917969 76.667969 48.234375 76.667969 44.480469 C 76.667969 40.535156 76.648438 40.046875 76.460938 39.859375 C 76.15625 39.558594 75.589844 39.59375 75.3125 39.929688 C 75.101562 40.191406 75.085938 40.550781 75.085938 44.5 L 75.085938 48.785156 L 75.402344 49.101562 C 75.742188 49.4375 76.101562 49.429688 76.480469 49.070312 Z M 113.6875 51.441406 C 112.765625 51.125 112.195312 50.648438 111.816406 49.878906 C 111.28125 48.789062 111.210938 48.035156 111.261719 43.988281 C 111.300781 40.515625 111.324219 40.199219 111.578125 39.578125 C 111.976562 38.59375 112.410156 38.101562 113.230469 37.703125 C 113.917969 37.367188 114.058594 37.34375 115.609375 37.34375 C 117.1875 37.34375 117.292969 37.359375 118.019531 37.722656 C 119.316406 38.367188 119.859375 39.53125 119.859375 41.660156 L 119.859375 42.585938 L 116.460938 42.585938 L 116.417969 41.328125 C 116.382812 40.363281 116.324219 40.019531 116.160156 39.859375 C 115.855469 39.554688 115.289062 39.59375 115.011719 39.9375 C 114.792969 40.207031 114.78125 40.503906 114.8125 44.558594 C 114.851562 49.195312 114.84375 49.136719 115.5 49.332031 C 115.671875 49.378906 115.875 49.320312 116.070312 49.164062 C 116.347656 48.941406 116.375 48.8125 116.417969 47.648438 L 116.460938 46.371094 L 119.898438 46.371094 L 119.828125 47.707031 C 119.769531 48.875 119.710938 49.144531 119.355469 49.859375 C 118.90625 50.765625 118.394531 51.191406 117.378906 51.496094 C 116.515625 51.753906 114.511719 51.726562 113.6875 51.441406 Z M 56.566406 44.480469 L 56.566406 37.410156 L 58.949219 37.410156 L 60.199219 40.316406 L 61.449219 43.226562 L 61.484375 40.3125 L 61.515625 37.398438 L 62.941406 37.433594 L 64.367188 37.472656 L 64.367188 51.488281 L 63.207031 51.523438 L 62.042969 51.558594 L 61.464844 50.070312 C 61.148438 49.253906 60.574219 47.789062 60.195312 46.816406 L 59.5 45.046875 L 59.492188 48.300781 L 59.484375 51.550781 L 56.566406 51.550781 Z M 88.625 45.773438 L 88.59375 39.996094 L 87.609375 39.960938 L 86.628906 39.921875 L 86.628906 37.410156 L 94.109375 37.410156 L 94.109375 39.921875 L 93.128906 39.960938 L 92.144531 39.996094 L 92.113281 45.773438 L 92.078125 51.550781 L 88.660156 51.550781 Z M 100.707031 44.480469 L 100.707031 37.410156 L 104.132812 37.410156 L 104.132812 51.550781 L 100.707031 51.550781 Z M 126.710938 44.480469 L 126.710938 37.410156 L 133.304688 37.410156 L 133.304688 39.808594 L 130.132812 39.808594 L 130.132812 42.839844 L 132.542969 42.839844 L 132.542969 45.226562 L 131.371094 45.261719 L 130.199219 45.300781 L 130.199219 49.214844 L 131.75 49.25 L 133.304688 49.285156 L 133.304688 51.550781 L 126.710938 51.550781 Z M 139.691406 51.027344 C 139.730469 50.726562 140.058594 47.664062 140.410156 44.226562 C 140.765625 40.789062 141.082031 37.839844 141.117188 37.675781 L 141.183594 37.378906 L 143.363281 37.441406 C 144.5625 37.476562 145.773438 37.574219 146.050781 37.660156 C 147.101562 37.980469 147.761719 39.015625 147.765625 40.335938 C 147.765625 42.152344 147.03125 43.515625 145.875 43.847656 L 145.546875 43.941406 L 145.925781 44.09375 C 147.144531 44.570312 147.660156 45.863281 147.382812 47.738281 C 147.121094 49.496094 146.46875 50.539062 145.253906 51.132812 C 144.550781 51.476562 144.464844 51.488281 142.074219 51.53125 L 139.613281 51.578125 Z M 144.476562 49.835938 C 145.144531 49.457031 145.503906 48.617188 145.570312 47.28125 C 145.664062 45.453125 145.164062 44.890625 143.324219 44.765625 C 142.765625 44.726562 142.308594 44.71875 142.304688 44.746094 C 142.179688 45.488281 141.75 50.066406 141.800781 50.117188 C 141.835938 50.15625 142.355469 50.164062 142.953125 50.136719 C 143.730469 50.101562 144.164062 50.015625 144.476562 49.835938 Z M 145.070312 43.011719 C 145.667969 42.582031 146.042969 41.65625 146.046875 40.601562 C 146.050781 39.785156 146.019531 39.652344 145.730469 39.363281 C 145.460938 39.09375 145.21875 39.019531 144.234375 38.90625 C 143.585938 38.828125 143.023438 38.804688 142.976562 38.847656 C 142.914062 38.914062 142.472656 42.511719 142.445312 43.199219 C 142.433594 43.492188 144.625 43.335938 145.070312 43.011719 Z M 153.246094 51.398438 C 153.28125 51.308594 154.296875 48.121094 155.511719 44.320312 L 157.714844 37.40625 L 159.546875 37.40625 L 159.621094 37.945312 C 159.707031 38.574219 161.085938 51.257812 161.085938 51.429688 C 161.085938 51.496094 160.6875 51.550781 160.203125 51.550781 L 159.320312 51.550781 L 159.253906 51.140625 C 159.222656 50.914062 159.148438 50.105469 159.089844 49.339844 L 158.992188 47.953125 L 156.089844 47.953125 L 155.570312 49.71875 L 155.050781 51.488281 L 154.117188 51.523438 C 153.398438 51.554688 153.203125 51.523438 153.246094 51.398438 Z M 158.839844 46.53125 C 158.871094 46.480469 158.792969 45.242188 158.664062 43.785156 C 158.535156 42.324219 158.429688 40.9375 158.425781 40.699219 C 158.421875 40.464844 158.390625 40.300781 158.355469 40.335938 C 158.285156 40.402344 156.523438 46.355469 156.519531 46.53125 C 156.519531 46.582031 157.027344 46.625 157.652344 46.625 C 158.273438 46.625 158.8125 46.582031 158.839844 46.53125 Z M 167.816406 51.265625 C 167.820312 51.109375 168.148438 47.941406 168.546875 44.226562 L 169.269531 37.46875 L 171.359375 37.476562 C 173.019531 37.480469 173.585938 37.527344 174.109375 37.703125 C 175.40625 38.144531 176.046875 39.34375 175.875 41.007812 C 175.707031 42.652344 175.179688 43.703125 174.273438 44.210938 C 173.996094 44.367188 173.769531 44.523438 173.769531 44.558594 C 173.769531 44.65625 174.917969 50.949219 174.996094 51.265625 C 175.0625 51.542969 175.035156 51.550781 174.097656 51.550781 C 173.519531 51.550781 173.132812 51.496094 173.132812 51.421875 C 173.132812 51.292969 172.1875 45.902344 172.042969 45.199219 C 171.972656 44.851562 171.953125 44.847656 171.1875 44.882812 L 170.40625 44.921875 L 170.066406 48.015625 C 169.878906 49.714844 169.722656 51.207031 169.71875 51.328125 C 169.710938 51.519531 169.574219 51.550781 168.757812 51.550781 C 167.851562 51.550781 167.808594 51.535156 167.816406 51.265625 Z M 172.839844 43.222656 C 173.589844 42.882812 173.925781 42.203125 173.988281 40.878906 C 174.054688 39.527344 173.828125 39.136719 172.855469 38.921875 C 172.488281 38.839844 171.925781 38.792969 171.613281 38.816406 L 171.042969 38.859375 L 170.828125 40.816406 C 170.507812 43.75 170.441406 43.46875 171.453125 43.464844 C 172.019531 43.464844 172.488281 43.382812 172.839844 43.222656 Z M 182.140625 51.140625 C 182.140625 50.914062 182.457031 47.78125 182.839844 44.175781 C 183.222656 40.570312 183.535156 37.5625 183.535156 37.496094 C 183.535156 37.320312 187.933594 37.464844 188.480469 37.664062 C 189.589844 38.058594 190.207031 38.886719 190.335938 40.152344 C 190.425781 40.992188 189.835938 47.054688 189.554688 48.171875 C 189.324219 49.097656 188.941406 49.859375 188.4375 50.394531 C 187.589844 51.289062 186.566406 51.550781 183.890625 51.550781 L 182.140625 51.550781 Z M 186.296875 49.964844 C 186.988281 49.679688 187.320312 49.308594 187.535156 48.589844 C 187.640625 48.238281 187.90625 46.273438 188.125 44.222656 C 188.484375 40.84375 188.507812 40.4375 188.34375 39.933594 C 188.21875 39.546875 188.042969 39.304688 187.773438 39.148438 C 187.300781 38.875 185.519531 38.691406 185.386719 38.902344 C 185.316406 39.015625 184.167969 49.449219 184.167969 49.988281 C 184.167969 50.234375 185.6875 50.21875 186.296875 49.964844 Z M 19.9375 56.222656 L 26.503906 52.765625 L 26.503906 16.300781 L 25.457031 16.851562 C 24.882812 17.15625 21.398438 18.992188 17.71875 20.929688 L 11.027344 24.453125 L 11.027344 60.917969 L 12.203125 60.296875 C 12.847656 59.957031 16.328125 58.121094 19.9375 56.222656 Z M 70.75 80.09375 C 70.101562 79.898438 69.621094 79.523438 69.375 79.011719 C 69.152344 78.550781 69.121094 78.226562 69.121094 76.070312 L 69.121094 73.648438 L 69.757812 73.648438 L 69.757812 75.925781 C 69.757812 78.339844 69.839844 78.78125 70.378906 79.261719 C 70.761719 79.601562 71.984375 79.683594 72.523438 79.40625 C 73.234375 79.042969 73.308594 78.730469 73.308594 76.054688 L 73.308594 73.648438 L 74.070312 73.648438 L 74.070312 75.726562 C 74.070312 78.25 73.941406 78.945312 73.375 79.511719 C 72.777344 80.105469 71.636719 80.359375 70.75 80.09375 Z M 77.539062 80.101562 C 76.816406 79.910156 76.261719 79.492188 75.878906 78.855469 C 75.59375 78.363281 75.53125 78.089844 75.488281 77.121094 C 75.445312 76.140625 75.476562 75.875 75.71875 75.316406 C 76.082031 74.476562 76.671875 73.964844 77.578125 73.703125 C 78.316406 73.488281 79.285156 73.515625 79.964844 73.773438 C 80.253906 73.882812 80.277344 73.933594 80.152344 74.164062 C 80.046875 74.363281 79.9375 74.410156 79.734375 74.34375 C 79.269531 74.199219 78.15625 74.121094 77.8125 74.207031 C 77.277344 74.339844 76.496094 75.132812 76.34375 75.707031 C 75.96875 77.089844 76.328125 78.648438 77.15625 79.238281 C 77.507812 79.488281 77.707031 79.519531 78.792969 79.515625 C 79.878906 79.507812 80.03125 79.53125 80.03125 79.722656 C 80.023438 79.859375 79.957031 79.957031 79.832031 80.011719 C 79.476562 80.148438 77.949219 80.210938 77.539062 80.101562 Z M 96.691406 80.101562 C 95.96875 79.910156 95.414062 79.492188 95.027344 78.847656 C 94.707031 78.300781 94.679688 78.15625 94.679688 76.871094 C 94.679688 75.578125 94.707031 75.4375 95.035156 74.882812 C 95.566406 73.980469 96.324219 73.589844 97.535156 73.589844 C 98.75 73.589844 99.503906 73.980469 100.039062 74.882812 C 100.363281 75.4375 100.390625 75.578125 100.390625 76.871094 C 100.390625 78.160156 100.363281 78.300781 100.039062 78.855469 C 99.578125 79.632812 98.835938 80.070312 97.84375 80.148438 C 97.429688 80.179688 96.914062 80.160156 96.691406 80.101562 Z M 98.679688 79.300781 C 99.292969 78.882812 99.546875 78.472656 99.699219 77.644531 C 99.925781 76.410156 99.664062 75.308594 98.988281 74.65625 C 98.589844 74.269531 98.460938 74.222656 97.691406 74.179688 C 96.957031 74.140625 96.777344 74.175781 96.40625 74.429688 C 95.761719 74.867188 95.515625 75.269531 95.378906 76.109375 C 95.039062 78.1875 95.910156 79.585938 97.535156 79.585938 C 98.078125 79.585938 98.363281 79.511719 98.679688 79.300781 Z M 123.457031 80.101562 C 122.730469 79.910156 122.175781 79.492188 121.792969 78.847656 C 121.472656 78.300781 121.445312 78.15625 121.445312 76.871094 C 121.445312 75.578125 121.46875 75.4375 121.796875 74.882812 C 122.332031 73.980469 123.085938 73.589844 124.300781 73.589844 C 125.511719 73.589844 126.269531 73.980469 126.800781 74.882812 C 127.128906 75.4375 127.152344 75.578125 127.152344 76.871094 C 127.152344 78.160156 127.128906 78.300781 126.800781 78.855469 C 126.339844 79.632812 125.601562 80.070312 124.605469 80.148438 C 124.191406 80.179688 123.675781 80.160156 123.457031 80.101562 Z M 125.441406 79.300781 C 126.058594 78.882812 126.3125 78.472656 126.464844 77.644531 C 126.691406 76.410156 126.429688 75.308594 125.753906 74.65625 C 125.351562 74.269531 125.222656 74.222656 124.457031 74.179688 C 123.722656 74.140625 123.539062 74.175781 123.167969 74.429688 C 122.527344 74.867188 122.28125 75.269531 122.144531 76.109375 C 121.804688 78.1875 122.671875 79.585938 124.300781 79.585938 C 124.839844 79.585938 125.128906 79.511719 125.441406 79.300781 Z M 141.59375 80.101562 C 140.871094 79.910156 140.316406 79.492188 139.933594 78.847656 C 139.609375 78.300781 139.585938 78.15625 139.585938 76.871094 C 139.585938 75.578125 139.609375 75.4375 139.9375 74.882812 C 140.46875 73.980469 141.226562 73.589844 142.4375 73.589844 C 143.652344 73.589844 144.40625 73.980469 144.941406 74.882812 C 145.265625 75.4375 145.292969 75.578125 145.292969 76.871094 C 145.292969 78.160156 145.265625 78.300781 144.941406 78.855469 C 144.480469 79.632812 143.738281 80.070312 142.746094 80.148438 C 142.332031 80.179688 141.816406 80.160156 141.59375 80.101562 Z M 143.582031 79.300781 C 144.199219 78.882812 144.449219 78.472656 144.601562 77.644531 C 144.828125 76.410156 144.566406 75.308594 143.890625 74.65625 C 143.492188 74.269531 143.363281 74.222656 142.59375 74.179688 C 141.863281 74.140625 141.679688 74.175781 141.308594 74.429688 C 140.667969 74.867188 140.417969 75.269531 140.28125 76.109375 C 139.941406 78.1875 140.8125 79.585938 142.4375 79.585938 C 142.980469 79.585938 143.265625 79.511719 143.582031 79.300781 Z M 159.160156 80.09375 C 158.507812 79.898438 158.03125 79.523438 157.78125 79.011719 C 157.558594 78.550781 157.53125 78.226562 157.53125 76.070312 L 157.53125 73.648438 L 158.167969 73.648438 L 158.167969 75.925781 C 158.167969 78.339844 158.25 78.78125 158.789062 79.261719 C 159.171875 79.601562 160.394531 79.683594 160.933594 79.40625 C 161.644531 79.042969 161.71875 78.730469 161.71875 76.054688 L 161.71875 73.648438 L 162.480469 73.648438 L 162.480469 75.726562 C 162.480469 78.25 162.351562 78.945312 161.785156 79.511719 C 161.1875 80.105469 160.046875 80.359375 159.160156 80.09375 Z M 186.484375 80.070312 C 186.023438 79.964844 185.945312 79.902344 185.945312 79.625 C 185.945312 79.347656 185.988281 79.316406 186.230469 79.386719 C 186.710938 79.53125 188.058594 79.621094 188.40625 79.535156 C 189.28125 79.316406 189.546875 78.222656 188.867188 77.648438 C 188.605469 77.445312 188.320312 77.289062 188.007812 77.179688 C 186.597656 76.722656 186.074219 76.167969 186.074219 75.125 C 186.074219 74.621094 186.136719 74.449219 186.433594 74.15625 C 186.957031 73.632812 187.714844 73.460938 188.777344 73.625 C 189.253906 73.695312 189.675781 73.785156 189.710938 73.820312 C 189.746094 73.855469 189.734375 74.003906 189.6875 74.152344 C 189.625 74.34375 189.535156 74.398438 189.390625 74.339844 C 188.949219 74.164062 187.722656 74.125 187.363281 74.273438 C 186.980469 74.429688 186.707031 74.863281 186.707031 75.308594 C 186.707031 75.714844 187.347656 76.242188 188.21875 76.558594 C 189.554688 77.046875 190.132812 77.78125 189.949219 78.761719 C 189.734375 79.898438 188.242188 80.460938 186.484375 80.070312 Z M 57.453125 76.871094 L 57.453125 73.648438 L 61.003906 73.648438 L 61.003906 74.28125 L 58.214844 74.28125 L 58.214844 76.425781 L 60.878906 76.425781 L 60.878906 77.058594 L 58.214844 77.058594 L 58.214844 79.457031 L 61.003906 79.457031 L 61.003906 80.089844 L 57.453125 80.089844 Z M 62.398438 76.855469 L 62.398438 73.617188 L 63.890625 73.675781 C 65.601562 73.746094 66.253906 73.953125 66.835938 74.609375 C 67.359375 75.207031 67.652344 76.273438 67.550781 77.234375 C 67.339844 79.261719 66.15625 80.089844 63.472656 80.089844 L 62.398438 80.089844 Z M 65.507812 79.222656 C 66.402344 78.8125 66.824219 78.0625 66.832031 76.855469 C 66.839844 76.050781 66.644531 75.457031 66.21875 74.992188 C 65.738281 74.464844 65.195312 74.28125 64.117188 74.28125 L 63.160156 74.28125 L 63.160156 79.457031 L 64.082031 79.457031 C 64.699219 79.453125 65.167969 79.378906 65.507812 79.21875 Z M 81.976562 76.867188 C 83.183594 73.84375 83.285156 73.644531 83.566406 73.675781 C 83.839844 73.710938 84.003906 74.050781 85.121094 76.859375 C 85.808594 78.589844 86.371094 80.023438 86.371094 80.046875 C 86.371094 80.070312 86.214844 80.089844 86.023438 80.089844 C 85.707031 80.089844 85.640625 80 85.289062 79.109375 L 84.90625 78.132812 L 82.167969 78.132812 L 81.789062 79.109375 C 81.4375 80.011719 81.378906 80.089844 81.046875 80.089844 L 80.691406 80.089844 Z M 84.566406 77.28125 C 84.535156 77.191406 84.320312 76.582031 84.089844 75.921875 C 83.855469 75.261719 83.636719 74.683594 83.59375 74.636719 C 83.554688 74.589844 83.285156 75.199219 83 75.996094 L 82.484375 77.4375 L 83.554688 77.4375 C 84.355469 77.4375 84.609375 77.398438 84.566406 77.28125 Z M 88.53125 77.183594 L 88.53125 74.28125 L 87.515625 74.28125 C 86.515625 74.28125 86.5 74.277344 86.5 73.964844 L 86.5 73.648438 L 91.320312 73.648438 L 91.320312 73.964844 C 91.320312 74.277344 91.304688 74.28125 90.304688 74.28125 L 89.289062 74.28125 L 89.289062 80.089844 L 88.527344 80.089844 Z M 92.335938 76.871094 L 92.335938 73.648438 L 93.097656 73.648438 L 93.097656 80.089844 L 92.335938 80.089844 Z M 101.976562 76.871094 L 101.976562 73.648438 L 102.386719 73.648438 C 102.78125 73.652344 102.871094 73.757812 104.574219 76.324219 L 106.351562 79 L 106.421875 73.648438 L 107.046875 73.648438 L 107.046875 80.089844 L 106.636719 80.085938 C 106.242188 80.082031 106.15625 79.980469 104.417969 77.339844 L 102.617188 74.59375 L 102.613281 77.339844 L 102.609375 80.089844 L 101.972656 80.089844 Z M 109.25 76.867188 C 110.457031 73.84375 110.554688 73.644531 110.839844 73.675781 C 111.109375 73.707031 111.277344 74.046875 112.394531 76.859375 C 113.082031 78.589844 113.644531 80.023438 113.644531 80.046875 C 113.644531 80.070312 113.488281 80.089844 113.296875 80.089844 C 112.976562 80.089844 112.914062 80 112.5625 79.109375 L 112.175781 78.132812 L 109.4375 78.132812 L 109.058594 79.109375 C 108.707031 80.011719 108.652344 80.089844 108.320312 80.089844 L 107.960938 80.089844 Z M 111.835938 77.28125 C 111.804688 77.191406 111.589844 76.582031 111.359375 75.921875 C 111.128906 75.261719 110.90625 74.683594 110.863281 74.636719 C 110.824219 74.589844 110.558594 75.199219 110.273438 75.996094 L 109.753906 77.4375 L 110.824219 77.4375 C 111.628906 77.4375 111.882812 77.398438 111.835938 77.28125 Z M 114.660156 76.871094 L 114.660156 73.648438 L 115.421875 73.648438 L 115.421875 79.457031 L 118.210938 79.457031 L 118.210938 80.089844 L 114.660156 80.089844 Z M 128.738281 76.851562 L 128.738281 73.617188 L 130.101562 73.675781 C 132.160156 73.761719 132.796875 74.203125 132.796875 75.550781 C 132.796875 76.792969 132.0625 77.40625 130.4375 77.53125 L 129.5 77.601562 L 129.5 80.089844 L 128.738281 80.089844 Z M 131.75 76.515625 C 132.027344 76.242188 132.101562 76.050781 132.101562 75.605469 C 132.101562 75.160156 132.027344 74.972656 131.75 74.695312 C 131.445312 74.390625 131.285156 74.34375 130.449219 74.300781 L 129.5 74.253906 L 129.5 76.960938 L 130.449219 76.914062 C 131.285156 76.871094 131.445312 76.820312 131.75 76.515625 Z M 134.320312 76.851562 L 134.320312 73.617188 L 135.683594 73.675781 C 137.742188 73.761719 138.378906 74.203125 138.378906 75.550781 C 138.378906 76.792969 137.644531 77.40625 136.019531 77.53125 L 135.082031 77.601562 L 135.082031 80.089844 L 134.320312 80.089844 Z M 137.332031 76.515625 C 137.609375 76.242188 137.679688 76.050781 137.679688 75.605469 C 137.679688 75.160156 137.609375 74.972656 137.332031 74.695312 C 137.027344 74.390625 136.867188 74.34375 136.03125 74.300781 L 135.082031 74.253906 L 135.082031 76.960938 L 136.03125 76.914062 C 136.867188 76.871094 137.027344 76.820312 137.332031 76.515625 Z M 146.878906 76.851562 L 146.878906 73.617188 L 148.304688 73.675781 C 150.371094 73.757812 150.9375 74.144531 150.9375 75.488281 C 150.9375 76.191406 150.660156 76.695312 150.101562 77.015625 L 149.6875 77.25 L 150.566406 78.671875 L 151.445312 80.089844 L 151.027344 80.089844 C 150.632812 80.089844 150.570312 80.019531 149.84375 78.796875 L 149.078125 77.5 L 148.359375 77.460938 L 147.640625 77.425781 L 147.640625 80.089844 L 146.878906 80.089844 Z M 149.664062 76.617188 C 150.335938 76.273438 150.476562 75.09375 149.902344 74.578125 C 149.707031 74.402344 149.390625 74.332031 148.640625 74.300781 L 147.640625 74.253906 L 147.640625 76.804688 L 148.46875 76.804688 C 148.957031 76.804688 149.449219 76.730469 149.664062 76.617188 Z M 153.726562 77.183594 L 153.726562 74.28125 L 152.710938 74.28125 C 151.714844 74.28125 151.699219 74.273438 151.699219 73.964844 L 151.699219 73.648438 L 156.519531 73.648438 L 156.519531 73.964844 C 156.519531 74.273438 156.5 74.28125 155.503906 74.28125 L 154.488281 74.28125 L 154.488281 80.089844 L 153.726562 80.089844 Z M 164.253906 76.867188 L 164.253906 73.648438 L 164.667969 73.648438 C 165.0625 73.652344 165.148438 73.757812 166.855469 76.324219 L 168.632812 79 L 168.664062 76.324219 L 168.699219 73.648438 L 169.328125 73.648438 L 169.328125 80.089844 L 168.917969 80.085938 C 168.519531 80.085938 168.433594 79.980469 166.699219 77.339844 L 164.894531 74.597656 L 164.894531 77.34375 L 164.890625 80.089844 L 164.253906 80.089844 Z M 171.105469 76.867188 L 171.105469 73.648438 L 171.867188 73.648438 L 171.867188 80.089844 L 171.105469 80.089844 Z M 174.910156 77.183594 L 174.910156 74.28125 L 173.894531 74.28125 C 172.898438 74.28125 172.878906 74.273438 172.878906 73.964844 L 172.878906 73.648438 L 177.699219 73.648438 L 177.699219 73.964844 C 177.699219 74.273438 177.683594 74.28125 176.6875 74.28125 L 175.671875 74.28125 L 175.671875 80.089844 L 174.910156 80.089844 Z M 178.589844 76.867188 L 178.589844 73.648438 L 179.351562 73.648438 L 179.351562 80.089844 L 178.589844 80.089844 Z M 181.253906 76.867188 L 181.253906 73.648438 L 184.804688 73.648438 L 184.804688 74.28125 L 182.011719 74.28125 L 182.011719 76.425781 L 184.675781 76.425781 L 184.675781 77.058594 L 182.011719 77.058594 L 182.011719 79.457031 L 184.804688 79.457031 L 184.804688 80.089844 L 181.25 80.089844 Z M 181.253906 76.867188"/><g fill="#0057FF" fill-opacity=".302"><g><g><path d="M 4.9375 -10.953125 C 5 -11.097656 5.09375 -11.234375 5.21875 -11.359375 C 5.519531 -11.671875 5.878906 -11.828125 6.296875 -11.828125 L 7.65625 -11.828125 C 8.070312 -11.828125 8.429688 -11.664062 8.734375 -11.34375 C 9.035156 -11.03125 9.1875 -10.648438 9.1875 -10.203125 L 9.1875 0 L 7.3125 0 L 7.3125 -10.046875 L 5.875 -10.046875 L 5.875 0 L 4 0 L 4 -10.046875 L 2.546875 -10.046875 L 2.546875 0 L 0.6875 0 L 0.6875 -10.203125 C 0.6875 -10.660156 0.832031 -11.046875 1.125 -11.359375 C 1.425781 -11.671875 1.789062 -11.828125 2.21875 -11.828125 L 3.578125 -11.828125 C 3.992188 -11.828125 4.351562 -11.664062 4.65625 -11.34375 C 4.769531 -11.21875 4.863281 -11.085938 4.9375 -10.953125 Z M 4.9375 -10.953125" transform="translate(72.705 106.133)"/></g></g></g><g fill="#0057FF" fill-opacity=".302"><g><g><path d="M 5.1875 -10.046875 L 2.546875 -10.046875 L 2.546875 -6.859375 L 5.1875 -8.21875 L 5.1875 -6.125 L 2.546875 -4.765625 L 2.546875 -1.78125 L 5.1875 -1.78125 L 5.1875 0 L 0.6875 0 L 0.6875 -10.203125 C 0.6875 -10.660156 0.832031 -11.046875 1.125 -11.359375 C 1.425781 -11.671875 1.789062 -11.828125 2.21875 -11.828125 L 5.1875 -11.828125 Z M 5.1875 -10.046875" transform="translate(82.565 106.133)"/></g></g></g><g fill="#0057FF" fill-opacity=".302"><g><g><path d="M 0.6875 0 L 0.6875 -11.828125 L 4.34375 -11.828125 C 4.757812 -11.828125 5.117188 -11.671875 5.421875 -11.359375 C 5.722656 -11.046875 5.875 -10.660156 5.875 -10.203125 L 5.875 -1.609375 C 5.875 -1.160156 5.722656 -0.78125 5.421875 -0.46875 C 5.117188 -0.15625 4.757812 0 4.34375 0 Z M 4 -1.78125 L 4 -10.046875 L 2.546875 -10.046875 L 2.546875 -1.78125 Z M 4 -1.78125" transform="translate(88.26 106.133)"/></g></g></g><g fill="#0057FF" fill-opacity=".302"><g><g><path d="M 0.6875 0 L 0.6875 -11.828125 L 2.546875 -11.828125 L 2.546875 0 Z M 0.6875 0" transform="translate(94.804 106.133)"/></g></g></g><g fill="#0057FF" fill-opacity=".302"><g><g><path d="M 0.6875 0 L 0.6875 -10.203125 C 0.6875 -10.660156 0.832031 -11.046875 1.125 -11.359375 C 1.425781 -11.671875 1.789062 -11.828125 2.21875 -11.828125 L 4.34375 -11.828125 C 4.757812 -11.828125 5.117188 -11.671875 5.421875 -11.359375 C 5.722656 -11.046875 5.875 -10.660156 5.875 -10.203125 L 5.875 0 L 4 0 L 4 -5.015625 L 2.546875 -4.25 L 2.546875 0 Z M 2.546875 -6.34375 L 4 -7.109375 L 4 -10.046875 L 2.546875 -10.046875 Z M 2.546875 -6.34375" transform="translate(98.033 106.133)"/></g></g></g><g fill="#0057FF" fill-opacity=".302"><g><g><path d="M 4 -6.890625 L 4 -10.046875 L 2.546875 -10.046875 L 2.546875 -6.125 Z M 2.546875 0 L 0.6875 0 L 0.6875 -11.828125 L 4.34375 -11.828125 C 4.757812 -11.828125 5.117188 -11.671875 5.421875 -11.359375 C 5.722656 -11.046875 5.875 -10.660156 5.875 -10.203125 L 5.875 -5.734375 L 2.546875 -4.03125 Z M 2.546875 0" transform="translate(107.808 106.133)"/></g></g></g><g fill="#0057FF" fill-opacity=".302"><g><g><path d="M 0.6875 0 L 0.6875 -10.203125 C 0.6875 -10.660156 0.832031 -11.046875 1.125 -11.359375 C 1.425781 -11.671875 1.789062 -11.828125 2.21875 -11.828125 L 4.34375 -11.828125 C 4.757812 -11.828125 5.117188 -11.671875 5.421875 -11.359375 C 5.722656 -11.046875 5.875 -10.660156 5.875 -10.203125 L 5.875 0 L 4 0 L 4 -5.015625 L 2.546875 -4.25 L 2.546875 0 Z M 2.546875 -6.34375 L 4 -7.109375 L 4 -10.046875 L 2.546875 -10.046875 Z M 2.546875 -6.34375" transform="translate(114.182 106.133)"/></g></g></g><g fill="#0057FF" fill-opacity=".302"><g><g><path d="M 4.9375 0 L 2.984375 -4.421875 L 2.546875 -4.203125 L 2.546875 0 L 0.6875 0 L 0.6875 -11.828125 L 4.34375 -11.828125 C 4.757812 -11.828125 5.117188 -11.671875 5.421875 -11.359375 C 5.722656 -11.046875 5.875 -10.660156 5.875 -10.203125 L 5.875 -5.90625 L 4.625 -5.28125 L 6.96875 0 Z M 4 -7.0625 L 4 -10.046875 L 2.546875 -10.046875 L 2.546875 -6.296875 Z M 4 -7.0625" transform="translate(120.727 106.133)"/></g></g></g><g fill="#0057FF" fill-opacity=".302"><g><g><path d="M 2.125 0 L 2.125 -10.046875 L 0.25 -10.046875 L 0.25 -11.828125 L 5.875 -11.828125 L 5.875 -10.046875 L 4 -10.046875 L 4 0 Z M 2.125 0" transform="translate(127.271 106.133)"/></g></g></g><g fill="#0057FF" fill-opacity=".302"><g><g><path d="M 2.546875 0 L 0.6875 0 L 0.6875 -11.828125 L 2.546875 -11.828125 L 2.546875 -10.953125 C 2.617188 -11.097656 2.710938 -11.234375 2.828125 -11.359375 C 3.128906 -11.671875 3.488281 -11.828125 3.90625 -11.828125 L 4.34375 -11.828125 C 4.757812 -11.828125 5.117188 -11.671875 5.421875 -11.359375 C 5.722656 -11.046875 5.875 -10.660156 5.875 -10.203125 L 5.875 0 L 4 0 L 4 -10.046875 L 2.546875 -10.046875 Z M 2.546875 0" transform="translate(133.39 106.133)"/></g></g></g><g fill="#0057FF" fill-opacity=".302"><g><g><path d="M 5.1875 -10.046875 L 2.546875 -10.046875 L 2.546875 -6.859375 L 5.1875 -8.21875 L 5.1875 -6.125 L 2.546875 -4.765625 L 2.546875 -1.78125 L 5.1875 -1.78125 L 5.1875 0 L 0.6875 0 L 0.6875 -10.203125 C 0.6875 -10.660156 0.832031 -11.046875 1.125 -11.359375 C 1.425781 -11.671875 1.789062 -11.828125 2.21875 -11.828125 L 5.1875 -11.828125 Z M 5.1875 -10.046875" transform="translate(139.935 106.133)"/></g></g></g><g fill="#0057FF" fill-opacity=".302"><g><g><path d="M 4.9375 0 L 2.984375 -4.421875 L 2.546875 -4.203125 L 2.546875 0 L 0.6875 0 L 0.6875 -11.828125 L 4.34375 -11.828125 C 4.757812 -11.828125 5.117188 -11.671875 5.421875 -11.359375 C 5.722656 -11.046875 5.875 -10.660156 5.875 -10.203125 L 5.875 -5.90625 L 4.625 -5.28125 L 6.96875 0 Z M 4 -7.0625 L 4 -10.046875 L 2.546875 -10.046875 L 2.546875 -6.296875 Z M 4 -7.0625" transform="translate(145.63 106.133)"/></g></g></g><g fill="#0057FF" fill-opacity=".502"><g><g><path d="M 4.9375 -10.953125 C 5 -11.097656 5.09375 -11.234375 5.21875 -11.359375 C 5.519531 -11.671875 5.878906 -11.828125 6.296875 -11.828125 L 7.65625 -11.828125 C 8.070312 -11.828125 8.429688 -11.664062 8.734375 -11.34375 C 9.035156 -11.03125 9.1875 -10.648438 9.1875 -10.203125 L 9.1875 0 L 7.3125 0 L 7.3125 -10.046875 L 5.875 -10.046875 L 5.875 0 L 4 0 L 4 -10.046875 L 2.546875 -10.046875 L 2.546875 0 L 0.6875 0 L 0.6875 -10.203125 C 0.6875 -10.660156 0.832031 -11.046875 1.125 -11.359375 C 1.425781 -11.671875 1.789062 -11.828125 2.21875 -11.828125 L 3.578125 -11.828125 C 3.992188 -11.828125 4.351562 -11.664062 4.65625 -11.34375 C 4.769531 -11.21875 4.863281 -11.085938 4.9375 -10.953125 Z M 4.9375 -10.953125" transform="translate(72.705 105.707)"/></g></g></g><g fill="#0057FF" fill-opacity=".502"><g><g><path d="M 5.1875 -10.046875 L 2.546875 -10.046875 L 2.546875 -6.859375 L 5.1875 -8.21875 L 5.1875 -6.125 L 2.546875 -4.765625 L 2.546875 -1.78125 L 5.1875 -1.78125 L 5.1875 0 L 0.6875 0 L 0.6875 -10.203125 C 0.6875 -10.660156 0.832031 -11.046875 1.125 -11.359375 C 1.425781 -11.671875 1.789062 -11.828125 2.21875 -11.828125 L 5.1875 -11.828125 Z M 5.1875 -10.046875" transform="translate(82.565 105.707)"/></g></g></g><g fill="#0057FF" fill-opacity=".502"><g><g><path d="M 0.6875 0 L 0.6875 -11.828125 L 4.34375 -11.828125 C 4.757812 -11.828125 5.117188 -11.671875 5.421875 -11.359375 C 5.722656 -11.046875 5.875 -10.660156 5.875 -10.203125 L 5.875 -1.609375 C 5.875 -1.160156 5.722656 -0.78125 5.421875 -0.46875 C 5.117188 -0.15625 4.757812 0 4.34375 0 Z M 4 -1.78125 L 4 -10.046875 L 2.546875 -10.046875 L 2.546875 -1.78125 Z M 4 -1.78125" transform="translate(88.26 105.707)"/></g></g></g><g fill="#0057FF" fill-opacity=".502"><g><g><path d="M 0.6875 0 L 0.6875 -11.828125 L 2.546875 -11.828125 L 2.546875 0 Z M 0.6875 0" transform="translate(94.804 105.707)"/></g></g></g><g fill="#0057FF" fill-opacity=".502"><g><g><path d="M 0.6875 0 L 0.6875 -10.203125 C 0.6875 -10.660156 0.832031 -11.046875 1.125 -11.359375 C 1.425781 -11.671875 1.789062 -11.828125 2.21875 -11.828125 L 4.34375 -11.828125 C 4.757812 -11.828125 5.117188 -11.671875 5.421875 -11.359375 C 5.722656 -11.046875 5.875 -10.660156 5.875 -10.203125 L 5.875 0 L 4 0 L 4 -5.015625 L 2.546875 -4.25 L 2.546875 0 Z M 2.546875 -6.34375 L 4 -7.109375 L 4 -10.046875 L 2.546875 -10.046875 Z M 2.546875 -6.34375" transform="translate(98.033 105.707)"/></g></g></g><g fill="#0057FF" fill-opacity=".502"><g><g><path d="M 4 -6.890625 L 4 -10.046875 L 2.546875 -10.046875 L 2.546875 -6.125 Z M 2.546875 0 L 0.6875 0 L 0.6875 -11.828125 L 4.34375 -11.828125 C 4.757812 -11.828125 5.117188 -11.671875 5.421875 -11.359375 C 5.722656 -11.046875 5.875 -10.660156 5.875 -10.203125 L 5.875 -5.734375 L 2.546875 -4.03125 Z M 2.546875 0" transform="translate(107.808 105.707)"/></g></g></g><g fill="#0057FF" fill-opacity=".502"><g><g><path d="M 0.6875 0 L 0.6875 -10.203125 C 0.6875 -10.660156 0.832031 -11.046875 1.125 -11.359375 C 1.425781 -11.671875 1.789062 -11.828125 2.21875 -11.828125 L 4.34375 -11.828125 C 4.757812 -11.828125 5.117188 -11.671875 5.421875 -11.359375 C 5.722656 -11.046875 5.875 -10.660156 5.875 -10.203125 L 5.875 0 L 4 0 L 4 -5.015625 L 2.546875 -4.25 L 2.546875 0 Z M 2.546875 -6.34375 L 4 -7.109375 L 4 -10.046875 L 2.546875 -10.046875 Z M 2.546875 -6.34375" transform="translate(114.182 105.707)"/></g></g></g><g fill="#0057FF" fill-opacity=".502"><g><g><path d="M 4.9375 0 L 2.984375 -4.421875 L 2.546875 -4.203125 L 2.546875 0 L 0.6875 0 L 0.6875 -11.828125 L 4.34375 -11.828125 C 4.757812 -11.828125 5.117188 -11.671875 5.421875 -11.359375 C 5.722656 -11.046875 5.875 -10.660156 5.875 -10.203125 L 5.875 -5.90625 L 4.625 -5.28125 L 6.96875 0 Z M 4 -7.0625 L 4 -10.046875 L 2.546875 -10.046875 L 2.546875 -6.296875 Z M 4 -7.0625" transform="translate(120.727 105.707)"/></g></g></g><g fill="#0057FF" fill-opacity=".502"><g><g><path d="M 2.125 0 L 2.125 -10.046875 L 0.25 -10.046875 L 0.25 -11.828125 L 5.875 -11.828125 L 5.875 -10.046875 L 4 -10.046875 L 4 0 Z M 2.125 0" transform="translate(127.271 105.707)"/></g></g></g><g fill="#0057FF" fill-opacity=".502"><g><g><path d="M 2.546875 0 L 0.6875 0 L 0.6875 -11.828125 L 2.546875 -11.828125 L 2.546875 -10.953125 C 2.617188 -11.097656 2.710938 -11.234375 2.828125 -11.359375 C 3.128906 -11.671875 3.488281 -11.828125 3.90625 -11.828125 L 4.34375 -11.828125 C 4.757812 -11.828125 5.117188 -11.671875 5.421875 -11.359375 C 5.722656 -11.046875 5.875 -10.660156 5.875 -10.203125 L 5.875 0 L 4 0 L 4 -10.046875 L 2.546875 -10.046875 Z M 2.546875 0" transform="translate(133.39 105.707)"/></g></g></g><g fill="#0057FF" fill-opacity=".502"><g><g><path d="M 5.1875 -10.046875 L 2.546875 -10.046875 L 2.546875 -6.859375 L 5.1875 -8.21875 L 5.1875 -6.125 L 2.546875 -4.765625 L 2.546875 -1.78125 L 5.1875 -1.78125 L 5.1875 0 L 0.6875 0 L 0.6875 -10.203125 C 0.6875 -10.660156 0.832031 -11.046875 1.125 -11.359375 C 1.425781 -11.671875 1.789062 -11.828125 2.21875 -11.828125 L 5.1875 -11.828125 Z M 5.1875 -10.046875" transform="translate(139.935 105.707)"/></g></g></g><g fill="#0057FF" fill-opacity=".502"><g><g><path d="M 4.9375 0 L 2.984375 -4.421875 L 2.546875 -4.203125 L 2.546875 0 L 0.6875 0 L 0.6875 -11.828125 L 4.34375 -11.828125 C 4.757812 -11.828125 5.117188 -11.671875 5.421875 -11.359375 C 5.722656 -11.046875 5.875 -10.660156 5.875 -10.203125 L 5.875 -5.90625 L 4.625 -5.28125 L 6.96875 0 Z M 4 -7.0625 L 4 -10.046875 L 2.546875 -10.046875 L 2.546875 -6.296875 Z M 4 -7.0625" transform="translate(145.63 105.707)"/></g></g></g><g fill="#EB3C27"><g><g><path d="M 4.9375 -10.953125 C 5 -11.097656 5.09375 -11.234375 5.21875 -11.359375 C 5.519531 -11.671875 5.878906 -11.828125 6.296875 -11.828125 L 7.65625 -11.828125 C 8.070312 -11.828125 8.429688 -11.664062 8.734375 -11.34375 C 9.035156 -11.03125 9.1875 -10.648438 9.1875 -10.203125 L 9.1875 0 L 7.3125 0 L 7.3125 -10.046875 L 5.875 -10.046875 L 5.875 0 L 4 0 L 4 -10.046875 L 2.546875 -10.046875 L 2.546875 0 L 0.6875 0 L 0.6875 -10.203125 C 0.6875 -10.660156 0.832031 -11.046875 1.125 -11.359375 C 1.425781 -11.671875 1.789062 -11.828125 2.21875 -11.828125 L 3.578125 -11.828125 C 3.992188 -11.828125 4.351562 -11.664062 4.65625 -11.34375 C 4.769531 -11.21875 4.863281 -11.085938 4.9375 -10.953125 Z M 4.9375 -10.953125" transform="translate(72.705 105.282)"/></g></g></g><g fill="#EB3C27"><g><g><path d="M 5.1875 -10.046875 L 2.546875 -10.046875 L 2.546875 -6.859375 L 5.1875 -8.21875 L 5.1875 -6.125 L 2.546875 -4.765625 L 2.546875 -1.78125 L 5.1875 -1.78125 L 5.1875 0 L 0.6875 0 L 0.6875 -10.203125 C 0.6875 -10.660156 0.832031 -11.046875 1.125 -11.359375 C 1.425781 -11.671875 1.789062 -11.828125 2.21875 -11.828125 L 5.1875 -11.828125 Z M 5.1875 -10.046875" transform="translate(82.565 105.282)"/></g></g></g><g fill="#EB3C27"><g><g><path d="M 0.6875 0 L 0.6875 -11.828125 L 4.34375 -11.828125 C 4.757812 -11.828125 5.117188 -11.671875 5.421875 -11.359375 C 5.722656 -11.046875 5.875 -10.660156 5.875 -10.203125 L 5.875 -1.609375 C 5.875 -1.160156 5.722656 -0.78125 5.421875 -0.46875 C 5.117188 -0.15625 4.757812 0 4.34375 0 Z M 4 -1.78125 L 4 -10.046875 L 2.546875 -10.046875 L 2.546875 -1.78125 Z M 4 -1.78125" transform="translate(88.26 105.282)"/></g></g></g><g fill="#EB3C27"><g><g><path d="M 0.6875 0 L 0.6875 -11.828125 L 2.546875 -11.828125 L 2.546875 0 Z M 0.6875 0" transform="translate(94.804 105.282)"/></g></g></g><g fill="#EB3C27"><g><g><path d="M 0.6875 0 L 0.6875 -10.203125 C 0.6875 -10.660156 0.832031 -11.046875 1.125 -11.359375 C 1.425781 -11.671875 1.789062 -11.828125 2.21875 -11.828125 L 4.34375 -11.828125 C 4.757812 -11.828125 5.117188 -11.671875 5.421875 -11.359375 C 5.722656 -11.046875 5.875 -10.660156 5.875 -10.203125 L 5.875 0 L 4 0 L 4 -5.015625 L 2.546875 -4.25 L 2.546875 0 Z M 2.546875 -6.34375 L 4 -7.109375 L 4 -10.046875 L 2.546875 -10.046875 Z M 2.546875 -6.34375" transform="translate(98.033 105.282)"/></g></g></g><g fill="#EB3C27"><g><g><path d="M 4 -6.890625 L 4 -10.046875 L 2.546875 -10.046875 L 2.546875 -6.125 Z M 2.546875 0 L 0.6875 0 L 0.6875 -11.828125 L 4.34375 -11.828125 C 4.757812 -11.828125 5.117188 -11.671875 5.421875 -11.359375 C 5.722656 -11.046875 5.875 -10.660156 5.875 -10.203125 L 5.875 -5.734375 L 2.546875 -4.03125 Z M 2.546875 0" transform="translate(107.808 105.282)"/></g></g></g><g fill="#EB3C27"><g><g><path d="M 0.6875 0 L 0.6875 -10.203125 C 0.6875 -10.660156 0.832031 -11.046875 1.125 -11.359375 C 1.425781 -11.671875 1.789062 -11.828125 2.21875 -11.828125 L 4.34375 -11.828125 C 4.757812 -11.828125 5.117188 -11.671875 5.421875 -11.359375 C 5.722656 -11.046875 5.875 -10.660156 5.875 -10.203125 L 5.875 0 L 4 0 L 4 -5.015625 L 2.546875 -4.25 L 2.546875 0 Z M 2.546875 -6.34375 L 4 -7.109375 L 4 -10.046875 L 2.546875 -10.046875 Z M 2.546875 -6.34375" transform="translate(114.182 105.282)"/></g></g></g><g fill="#EB3C27"><g><g><path d="M 4.9375 0 L 2.984375 -4.421875 L 2.546875 -4.203125 L 2.546875 0 L 0.6875 0 L 0.6875 -11.828125 L 4.34375 -11.828125 C 4.757812 -11.828125 5.117188 -11.671875 5.421875 -11.359375 C 5.722656 -11.046875 5.875 -10.660156 5.875 -10.203125 L 5.875 -5.90625 L 4.625 -5.28125 L 6.96875 0 Z M 4 -7.0625 L 4 -10.046875 L 2.546875 -10.046875 L 2.546875 -6.296875 Z M 4 -7.0625" transform="translate(120.727 105.282)"/></g></g></g><g fill="#EB3C27"><g><g><path d="M 2.125 0 L 2.125 -10.046875 L 0.25 -10.046875 L 0.25 -11.828125 L 5.875 -11.828125 L 5.875 -10.046875 L 4 -10.046875 L 4 0 Z M 2.125 0" transform="translate(127.271 105.282)"/></g></g></g><g fill="#EB3C27"><g><g><path d="M 2.546875 0 L 0.6875 0 L 0.6875 -11.828125 L 2.546875 -11.828125 L 2.546875 -10.953125 C 2.617188 -11.097656 2.710938 -11.234375 2.828125 -11.359375 C 3.128906 -11.671875 3.488281 -11.828125 3.90625 -11.828125 L 4.34375 -11.828125 C 4.757812 -11.828125 5.117188 -11.671875 5.421875 -11.359375 C 5.722656 -11.046875 5.875 -10.660156 5.875 -10.203125 L 5.875 0 L 4 0 L 4 -10.046875 L 2.546875 -10.046875 Z M 2.546875 0" transform="translate(133.39 105.282)"/></g></g></g><g fill="#EB3C27"><g><g><path d="M 5.1875 -10.046875 L 2.546875 -10.046875 L 2.546875 -6.859375 L 5.1875 -8.21875 L 5.1875 -6.125 L 2.546875 -4.765625 L 2.546875 -1.78125 L 5.1875 -1.78125 L 5.1875 0 L 0.6875 0 L 0.6875 -10.203125 C 0.6875 -10.660156 0.832031 -11.046875 1.125 -11.359375 C 1.425781 -11.671875 1.789062 -11.828125 2.21875 -11.828125 L 5.1875 -11.828125 Z M 5.1875 -10.046875" transform="translate(139.935 105.282)"/></g></g></g><g fill="#EB3C27"><g><g><path d="M 4.9375 0 L 2.984375 -4.421875 L 2.546875 -4.203125 L 2.546875 0 L 0.6875 0 L 0.6875 -11.828125 L 4.34375 -11.828125 C 4.757812 -11.828125 5.117188 -11.671875 5.421875 -11.359375 C 5.722656 -11.046875 5.875 -10.660156 5.875 -10.203125 L 5.875 -5.90625 L 4.625 -5.28125 L 6.96875 0 Z M 4 -7.0625 L 4 -10.046875 L 2.546875 -10.046875 L 2.546875 -6.296875 Z M 4 -7.0625" transform="translate(145.63 105.282)"/></g></g></g></svg>